<svg width="32" height="32" viewBox="0 0 32 32" fill="none" xmlns="http://www.w3.org/2000/svg">
  <defs>
    <radialGradient id="ig-gradient" cx="25%" cy="100%" r="120%">
      <stop offset="0%" style="stop-color:#FFD521;stop-opacity:1" />
      <stop offset="10%" style="stop-color:#F7A621;stop-opacity:1" />
      <stop offset="50%" style="stop-color:#E1306C;stop-opacity:1" />
      <stop offset="100%" style="stop-color:#5B51D8;stop-opacity:1" />
    </radialGradient>
  </defs>
  <rect x="0" y="0" width="32" height="32" rx="8" fill="url(#ig-gradient)"/>
  <path d="M16 10.4C18.136 10.4 18.389 10.408 19.233 10.448C20.013 10.485 20.436 10.629 20.717 10.747C21.091 10.904 21.359 11.092 21.639 11.372C21.919 11.652 22.107 11.92 22.264 12.294C22.382 12.575 22.526 12.998 22.563 13.778C22.603 14.622 22.611 14.875 22.611 17.011C22.611 19.147 22.603 19.4 22.563 20.244C22.526 21.024 22.382 21.447 22.264 21.728C22.107 22.102 21.919 22.37 21.639 22.65C21.359 22.93 21.091 23.118 20.717 23.275C20.436 23.393 20.013 23.537 19.233 23.574C18.389 23.614 18.136 23.622 16 23.622C13.864 23.622 13.611 23.614 12.767 23.574C11.987 23.537 11.564 23.393 11.283 23.275C10.909 23.118 10.641 22.93 10.361 22.65C10.081 22.37 9.893 22.102 9.736 21.728C9.618 21.447 9.474 21.024 9.437 20.244C9.397 19.4 9.389 19.147 9.389 17.011C9.389 14.875 9.397 14.622 9.437 13.778C9.474 12.998 9.618 12.575 9.736 12.294C9.893 11.92 10.081 11.652 10.361 11.372C10.641 11.092 10.909 10.904 11.283 10.747C11.564 10.629 11.987 10.485 12.767 10.448C13.611 10.408 13.864 10.4 16 10.4ZM16 8C13.827 8 13.555 8.009 12.702 8.05C11.85 8.09 11.268 8.239 10.762 8.45C10.234 8.669 9.788 8.957 9.343 9.402C8.898 9.847 8.61 10.293 8.391 10.821C8.18 11.327 8.031 11.909 7.991 12.761C7.951 13.614 7.942 13.886 7.942 16.059C7.942 18.232 7.951 18.504 7.991 19.357C8.031 20.209 8.18 20.791 8.391 21.297C8.61 21.825 8.898 22.271 9.343 22.716C9.788 23.161 10.234 23.449 10.762 23.668C11.268 23.879 11.85 24.028 12.702 24.068C13.555 24.108 13.827 24.117 16 24.117C18.173 24.117 18.445 24.108 19.298 24.068C20.15 24.028 20.732 23.879 21.238 23.668C21.766 23.449 22.212 23.161 22.657 22.716C23.102 22.271 23.39 21.825 23.609 21.297C23.82 20.791 23.969 20.209 24.009 19.357C24.049 18.504 24.058 18.232 24.058 16.059C24.058 13.886 24.049 13.614 24.009 12.761C23.969 11.909 23.82 11.327 23.609 10.821C23.39 10.293 23.102 9.847 22.657 9.402C22.212 8.957 21.766 8.669 21.238 8.45C20.732 8.239 20.15 8.09 19.298 8.05C18.445 8.009 18.173 8 16 8Z" fill="white"/>
  <path d="M16 12.865C13.731 12.865 11.889 14.707 11.889 16.976C11.889 19.245 13.731 21.087 16 21.087C18.269 21.087 20.111 19.245 20.111 16.976C20.111 14.707 18.269 12.865 16 12.865ZM16 19.309C14.714 19.309 13.667 18.262 13.667 16.976C13.667 15.69 14.714 14.643 16 14.643C17.286 14.643 18.333 15.69 18.333 16.976C18.333 18.262 17.286 19.309 16 19.309Z" fill="white"/>
  <circle cx="20.278" cy="12.722" r="1" fill="white"/>
</svg>
