<svg width="32" height="32" viewBox="0 0 32 32" fill="none" xmlns="http://www.w3.org/2000/svg">
  <rect width="32" height="32" rx="8" fill="black"/>
  <path d="M24 11.5C24 11.5 23.5 9.5 22.5 8.5C21.2 7.2 19.8 7.2 19.1 7.1C16 6.8 12 6.8 12 6.8H12C12 6.8 8 6.8 4.9 7.1C4.2 7.2 2.8 7.2 1.5 8.5C0.5 9.5 0 11.5 0 11.5C0 11.5 -0.4 13.9 -0.4 16.3V18.5C-0.4 20.9 0 23.3 0 23.3C0 23.3 0.5 25.3 1.5 26.3C2.8 27.6 4.5 27.5 5.2 27.7C7.6 27.9 12 28 12 28C12 28 16 28 19.1 27.7C19.8 27.6 21.2 27.6 22.5 26.3C23.5 25.3 24 23.3 24 23.3C24 23.3 24.4 20.9 24.4 18.5V16.3C24.4 13.9 24 11.5 24 11.5ZM9.5 21.1V13.2L16.3 17.2L9.5 21.1Z" fill="#25F4EE" transform="translate(4, 2)"/>
  <path d="M24 11.5C24 11.5 23.5 9.5 22.5 8.5C21.2 7.2 19.8 7.2 19.1 7.1C16 6.8 12 6.8 12 6.8H12C12 6.8 8 6.8 4.9 7.1C4.2 7.2 2.8 7.2 1.5 8.5C0.5 9.5 0 11.5 0 11.5C0 11.5 -0.4 13.9 -0.4 16.3V18.5C-0.4 20.9 0 23.3 0 23.3C0 23.3 0.5 25.3 1.5 26.3C2.8 27.6 4.5 27.5 5.2 27.7C7.6 27.9 12 28 12 28C12 28 16 28 19.1 27.7C19.8 27.6 21.2 27.6 22.5 26.3C23.5 25.3 24 23.3 24 23.3C24 23.3 24.4 20.9 24.4 18.5V16.3C24.4 13.9 24 11.5 24 11.5ZM9.5 21.1V13.2L16.3 17.2L9.5 21.1Z" fill="#FE2C55" transform="translate(3.5, 2)"/>
  <path d="M9.5 21.1V13.2L16.3 17.2L9.5 21.1Z" fill="white" transform="translate(3.5, 2)"/>
</svg>
